<svg xmlns="http://www.w3.org/2000/svg" width="900" height="600" viewBox="0 0 900 600">
  <defs>
    <linearGradient id="bg3" x1="0%" y1="0%" x2="100%" y2="100%">
      <stop offset="0%" style="stop-color:#f0f7ff"/>
      <stop offset="100%" style="stop-color:#e0f0fb"/>
    </linearGradient>
  </defs>
  <rect width="900" height="600" fill="url(#bg3)"/>
  <line x1="0" y1="150" x2="900" y2="150" stroke="#dce8f5" stroke-width="1"/>
  <line x1="0" y1="300" x2="900" y2="300" stroke="#dce8f5" stroke-width="1"/>
  <line x1="0" y1="450" x2="900" y2="450" stroke="#dce8f5" stroke-width="1"/>
  <line x1="225" y1="0" x2="225" y2="600" stroke="#dce8f5" stroke-width="1"/>
  <line x1="450" y1="0" x2="450" y2="600" stroke="#dce8f5" stroke-width="1"/>
  <line x1="675" y1="0" x2="675" y2="600" stroke="#dce8f5" stroke-width="1"/>
  <rect x="28" y="28" width="90" height="32" rx="8" fill="#0a6ebd"/>
  <text x="73" y="49" text-anchor="middle" font-family="Georgia,serif" font-size="13" font-weight="700" fill="white">Page 3 / 5</text>
  <rect x="0" y="520" width="900" height="80" fill="#0a6ebd" opacity="0.92"/>
  <text x="450" y="562" text-anchor="middle" font-family="Georgia,serif" font-size="22" font-weight="700" fill="white">Coronary Circulation</text>
  <text x="450" y="587" text-anchor="middle" font-family="Georgia,serif" font-size="13" fill="rgba(255,255,255,0.7)">Life Sciences · Human Heart Module · ILS</text>
  <g transform="translate(450,255)">
    <path d="M0,72 C0,72 -144,-18 -144,-90 C-144,-162 -72,-198 0,-126 C72,-198 144,-162 144,-90 C144,-18 0,72 0,72 Z" fill="#c0392b" opacity="0.85"/>
    <path d="M0,72 C0,72 -144,-18 -144,-90 C-144,-162 -72,-198 0,-126 C72,-198 144,-162 144,-90 C144,-18 0,72 0,72 Z" fill="none" stroke="#922b21" stroke-width="2.5" opacity="0.5"/>
    <text x="-70" y="-50" text-anchor="middle" font-family="Georgia,serif" font-size="12" fill="white" font-weight="600">Left Atrium</text>
    <text x="70" y="-50" text-anchor="middle" font-family="Georgia,serif" font-size="12" fill="white" font-weight="600">Right Atrium</text>
    <text x="-70" y="25" text-anchor="middle" font-family="Georgia,serif" font-size="12" fill="white" font-weight="600">Left Ventricle</text>
    <text x="70" y="25" text-anchor="middle" font-family="Georgia,serif" font-size="12" fill="white" font-weight="600">Right Ventricle</text>
  </g>
  <line x1="190" y1="200" x2="306" y2="230" stroke="#0a6ebd" stroke-width="1.5" stroke-dasharray="4,3"/>
  <line x1="710" y1="200" x2="594" y2="230" stroke="#0a6ebd" stroke-width="1.5" stroke-dasharray="4,3"/>
  <circle cx="190" cy="200" r="5" fill="#0a6ebd"/>
  <circle cx="710" cy="200" r="5" fill="#0a6ebd"/>
  <rect x="40" y="350" width="210" height="130" rx="10" fill="white" stroke="#dce8f5" stroke-width="1.5"/>
  <text x="145" y="375" text-anchor="middle" font-family="Georgia,serif" font-size="12" font-weight="700" fill="#0a6ebd">Key Facts</text>
  <line x1="60" y1="382" x2="230" y2="382" stroke="#dce8f5" stroke-width="1"/>
  <text x="60" y="401" font-family="Georgia,serif" font-size="11" fill="#4a6080">• 4 chambers, 4 valves</text>
  <text x="60" y="420" font-family="Georgia,serif" font-size="11" fill="#4a6080">• 5 L/min cardiac output</text>
  <text x="60" y="439" font-family="Georgia,serif" font-size="11" fill="#4a6080">• Dual circulatory system</text>
  <text x="60" y="458" font-family="Georgia,serif" font-size="11" fill="#4a6080">• Myocardium = cardiac muscle</text>
  <rect x="650" y="350" width="210" height="130" rx="10" fill="white" stroke="#dce8f5" stroke-width="1.5"/>
  <text x="755" y="375" text-anchor="middle" font-family="Georgia,serif" font-size="12" font-weight="700" fill="#0d9488">Clinical Note</text>
  <line x1="670" y1="382" x2="840" y2="382" stroke="#dce8f5" stroke-width="1"/>
  <text x="670" y="401" font-family="Georgia,serif" font-size="11" fill="#4a6080">• Heart rate: 60-100 bpm</text>
  <text x="670" y="420" font-family="Georgia,serif" font-size="11" fill="#4a6080">• Weight: 250-350g</text>
  <text x="670" y="439" font-family="Georgia,serif" font-size="11" fill="#4a6080">• Size of a closed fist</text>
  <text x="670" y="458" font-family="Georgia,serif" font-size="11" fill="#4a6080">• Located in mediastinum</text>
</svg>